<svg xmlns="http://www.w3.org/2000/svg" width="203.92000000000002" height="35" viewBox="0 0 203.92000000000002 35"><rect class="svg__rect" x="0" y="0" width="55.38" height="35" fill="#E46C17"/><rect class="svg__rect" x="53.38" y="0" width="150.54000000000002" height="35" fill="#D35B09"/><path class="svg__text" d="M13.89 16.33L13.89 16.33Q13.89 15.48 14.23 14.80Q14.57 14.11 15.20 13.73Q15.83 13.35 16.65 13.35L16.65 13.35Q17.94 13.35 18.70 14.31Q19.46 15.27 19.46 16.88L19.46 16.88L19.46 17.28Q19.46 19.59 18.41 20.80Q17.37 22.02 15.30 22.04L15.30 22.04L15.13 22.04L15.13 20.86L15.34 20.86Q16.60 20.84 17.27 20.25Q17.94 19.66 18.03 18.43L18.03 18.43Q17.31 19.19 16.36 19.19L16.36 19.19Q15.23 19.19 14.56 18.40Q13.89 17.61 13.89 16.33ZM15.30 16.29L15.30 16.29Q15.30 17.09 15.67 17.58Q16.04 18.07 16.65 18.07L16.65 18.07Q17.08 18.07 17.46 17.83Q17.83 17.58 18.04 17.15L18.04 17.15L18.04 16.59Q18.04 15.65 17.65 15.07Q17.26 14.50 16.65 14.50Q16.03 14.50 15.67 15.01Q15.30 15.51 15.30 16.29ZM23.84 18.70L23.84 18.70L23.84 18.21Q23.84 15.97 24.94 14.70Q26.03 13.43 28.08 13.43L28.08 13.43L28.23 13.43L28.23 14.61L28.05 14.61Q26.86 14.62 26.14 15.26Q25.43 15.90 25.29 17.07L25.29 17.07Q25.98 16.35 27.04 16.35L27.04 16.35Q28.17 16.35 28.83 17.15Q29.48 17.95 29.48 19.21L29.48 19.21Q29.48 20.51 28.72 21.31Q27.95 22.12 26.71 22.12L26.71 22.12Q25.43 22.12 24.64 21.17Q23.84 20.23 23.84 18.70ZM25.27 18.47L25.27 18.90Q25.27 19.85 25.67 20.41Q26.06 20.97 26.70 20.97Q27.33 20.97 27.70 20.49Q28.07 20.02 28.07 19.25Q28.07 18.47 27.69 17.99Q27.32 17.50 26.70 17.50L26.70 17.50Q26.23 17.50 25.84 17.76Q25.45 18.03 25.27 18.47L25.27 18.47ZM33.55 15.53L33.55 15.53L33.55 15.11Q33.55 14.34 34.05 13.84Q34.54 13.35 35.35 13.35L35.35 13.35Q36.17 13.35 36.67 13.84Q37.16 14.34 37.16 15.14L37.16 15.14L37.16 15.56Q37.16 16.33 36.67 16.82Q36.17 17.31 35.36 17.31L35.36 17.31Q34.57 17.31 34.06 16.83Q33.55 16.35 33.55 15.53ZM34.54 15.13L34.54 15.56Q34.54 15.96 34.77 16.21Q34.99 16.46 35.36 16.46L35.36 16.46Q35.73 16.46 35.95 16.21Q36.17 15.96 36.17 15.54L36.17 15.54L36.17 15.11Q36.17 14.71 35.95 14.45Q35.72 14.20 35.35 14.20Q34.98 14.20 34.76 14.46Q34.54 14.71 34.54 15.13L34.54 15.13ZM35.66 21.36L34.92 20.94L39.09 14.27L39.82 14.69L35.66 21.36ZM37.65 20.34L37.65 20.34L37.65 19.91Q37.65 19.12 38.16 18.64Q38.67 18.15 39.46 18.15L39.46 18.15Q40.26 18.15 40.76 18.64Q41.27 19.12 41.27 19.95L41.27 19.95L41.27 20.37Q41.27 21.13 40.78 21.62Q40.29 22.12 39.47 22.12Q38.65 22.12 38.15 21.63Q37.65 21.14 37.65 20.34ZM38.64 19.93L38.64 20.37Q38.64 20.76 38.88 21.02Q39.11 21.27 39.47 21.27L39.47 21.27Q39.85 21.27 40.06 21.03Q40.27 20.79 40.27 20.35L40.27 20.35L40.27 19.91Q40.27 19.50 40.05 19.25Q39.82 19.01 39.46 19.01L39.46 19.01Q39.10 19.01 38.87 19.25Q38.64 19.50 38.64 19.93L38.64 19.93Z" fill="#FFFFFF"/><path class="svg__text" d="M67.14 17.80L67.14 17.80Q67.14 16.54 67.74 15.54Q68.34 14.55 69.39 13.99Q70.44 13.43 71.76 13.43L71.76 13.43Q72.91 13.43 73.83 13.84Q74.76 14.25 75.37 15.02L75.37 15.02L73.86 16.39Q73.05 15.40 71.88 15.40L71.88 15.40Q71.19 15.40 70.66 15.70Q70.13 16 69.83 16.54Q69.54 17.09 69.54 17.80L69.54 17.80Q69.54 18.51 69.83 19.05Q70.13 19.60 70.66 19.90Q71.19 20.20 71.88 20.20L71.88 20.20Q73.05 20.20 73.86 19.22L73.86 19.22L75.37 20.58Q74.76 21.35 73.84 21.76Q72.91 22.17 71.76 22.17L71.76 22.17Q70.44 22.17 69.39 21.61Q68.34 21.05 67.74 20.05Q67.14 19.06 67.14 17.80ZM81.33 22L78.90 22L82.61 13.60L84.95 13.60L88.67 22L86.20 22L85.54 20.37L81.99 20.37L81.33 22ZM83.76 15.93L82.68 18.61L84.84 18.61L83.76 15.93ZM95.20 22L92.82 22L92.82 13.60L99.41 13.60L99.41 15.44L95.20 15.44L95.20 17.28L98.91 17.28L98.91 19.12L95.20 19.12L95.20 22ZM106.39 22L104.01 22L104.01 13.60L110.60 13.60L110.60 15.44L106.39 15.44L106.39 17.28L110.10 17.28L110.10 19.12L106.39 19.12L106.39 22ZM121.94 22L115.19 22L115.19 13.60L121.78 13.60L121.78 15.44L117.55 15.44L117.55 16.85L121.28 16.85L121.28 18.63L117.55 18.63L117.55 20.17L121.94 20.17L121.94 22ZM129.12 22L126.74 22L126.74 13.60L129.12 13.60L129.12 22ZM136.63 22L134.29 22L134.29 13.60L136.25 13.60L139.96 18.07L139.96 13.60L142.29 13.60L142.29 22L140.34 22L136.63 17.52L136.63 22ZM148.87 22L146.44 22L150.15 13.60L152.49 13.60L156.21 22L153.74 22L153.08 20.37L149.53 20.37L148.87 22ZM151.30 15.93L150.22 18.61L152.38 18.61L151.30 15.93ZM162.16 15.48L159.57 15.48L159.57 13.60L167.10 13.60L167.10 15.48L164.53 15.48L164.53 22L162.16 22L162.16 15.48ZM178.21 22L171.47 22L171.47 13.60L178.06 13.60L178.06 15.44L173.82 15.44L173.82 16.85L177.55 16.85L177.55 18.63L173.82 18.63L173.82 20.17L178.21 20.17L178.21 22ZM186.99 22L183.02 22L183.02 13.60L186.99 13.60Q188.37 13.60 189.44 14.12Q190.50 14.63 191.09 15.58Q191.68 16.53 191.68 17.80L191.68 17.80Q191.68 19.07 191.09 20.02Q190.50 20.97 189.44 21.48Q188.37 22 186.99 22L186.99 22ZM185.39 15.50L185.39 20.10L186.89 20.10Q187.97 20.10 188.63 19.49Q189.28 18.88 189.28 17.80L189.28 17.80Q189.28 16.72 188.63 16.11Q187.97 15.50 186.89 15.50L186.89 15.50L185.39 15.50Z" fill="#FFFFFF" x="66.38"/></svg>