<svg xmlns="http://www.w3.org/2000/svg" width="142.89" height="35" viewBox="0 0 142.89 35"><rect class="svg__rect" x="0" y="0" width="97.89" height="35" fill="#C1D72F"/><rect class="svg__rect" x="95.89" y="0" width="47" height="35" fill="#5D9741"/><path class="svg__text" d="M17.33 22L14.22 22L14.22 13.47L17.14 13.47Q18.59 13.47 19.34 14.05Q20.10 14.63 20.10 15.78L20.10 15.78Q20.10 16.36 19.78 16.83Q19.47 17.30 18.86 17.56L18.86 17.56Q19.55 17.75 19.93 18.26Q20.31 18.78 20.31 19.51L20.31 19.51Q20.31 20.71 19.53 21.36Q18.76 22 17.33 22L17.33 22ZM15.70 18.15L15.70 20.82L17.35 20.82Q18.04 20.82 18.44 20.47Q18.83 20.13 18.83 19.51L18.83 19.51Q18.83 18.18 17.47 18.15L17.47 18.15L15.70 18.15ZM15.70 14.66L15.70 17.06L17.15 17.06Q17.84 17.06 18.23 16.75Q18.62 16.43 18.62 15.86L18.62 15.86Q18.62 15.23 18.26 14.95Q17.90 14.66 17.14 14.66L17.14 14.66L15.70 14.66ZM25.56 22L24.01 22L27.24 13.47L28.57 13.47L31.80 22L30.25 22L29.55 20.01L26.25 20.01L25.56 22ZM27.90 15.28L26.66 18.82L29.14 18.82L27.90 15.28ZM41.11 22L35.75 22L35.75 13.47L37.23 13.47L37.23 20.82L41.11 20.82L41.11 22ZM46.01 22L44.47 22L47.69 13.47L49.02 13.47L52.25 22L50.70 22L50.01 20.01L46.70 20.01L46.01 22ZM48.35 15.28L47.12 18.82L49.59 18.82L48.35 15.28ZM57.69 22L56.21 22L56.21 13.47L57.69 13.47L61.50 19.54L61.50 13.47L62.97 13.47L62.97 22L61.49 22L57.69 15.95L57.69 22ZM67.44 18.19L67.44 18.19L67.44 17.39Q67.44 16.19 67.87 15.27Q68.30 14.35 69.10 13.85Q69.90 13.35 70.95 13.35L70.95 13.35Q72.36 13.35 73.22 14.12Q74.08 14.89 74.22 16.29L74.22 16.29L72.75 16.29Q72.64 15.37 72.21 14.96Q71.78 14.55 70.95 14.55L70.95 14.55Q69.98 14.55 69.46 15.26Q68.94 15.96 68.93 17.33L68.93 17.33L68.93 18.09Q68.93 19.47 69.43 20.20Q69.92 20.92 70.88 20.92L70.88 20.92Q71.75 20.92 72.19 20.53Q72.63 20.14 72.75 19.22L72.75 19.22L74.22 19.22Q74.09 20.59 73.22 21.35Q72.34 22.12 70.88 22.12L70.88 22.12Q69.86 22.12 69.08 21.63Q68.31 21.15 67.88 20.26Q67.46 19.37 67.44 18.19ZM84.11 22L78.54 22L78.54 13.47L84.07 13.47L84.07 14.66L80.02 14.66L80.02 17.02L83.52 17.02L83.52 18.19L80.02 18.19L80.02 20.82L84.11 20.82L84.11 22Z" fill="#FFFFFF"/><path class="svg__text" d="M109.65 17.80L109.65 17.80Q109.65 16.45 110.12 15.46Q110.59 14.46 111.43 13.95Q112.28 13.43 113.35 13.43L113.35 13.43Q114.42 13.43 115.26 13.95Q116.10 14.46 116.58 15.46Q117.05 16.45 117.05 17.80L117.05 17.80Q117.05 19.15 116.58 20.15Q116.10 21.14 115.26 21.65Q114.43 22.17 113.35 22.17L113.35 22.17Q112.28 22.17 111.43 21.65Q110.59 21.14 110.12 20.15Q109.65 19.16 109.65 17.80ZM112.03 17.80L112.03 17.80Q112.03 19.06 112.39 19.64Q112.74 20.22 113.35 20.22L113.35 20.22Q113.96 20.22 114.31 19.64Q114.67 19.06 114.67 17.80L114.67 17.80Q114.67 16.54 114.31 15.96Q113.96 15.38 113.35 15.38L113.35 15.38Q112.74 15.38 112.39 15.96Q112.03 16.54 112.03 17.80ZM122.63 19.22L121.30 19.22L121.30 18.04L122.42 18.04L122.42 17.80L122.42 17.56L121.30 17.56L121.30 16.39L122.63 16.39Q122.92 15.50 123.56 14.83Q124.19 14.17 125.09 13.80Q125.99 13.43 127.03 13.43L127.03 13.43Q128.19 13.43 129.11 13.84Q130.03 14.25 130.65 15.02L130.65 15.02L129.14 16.39Q128.32 15.40 127.16 15.40L127.16 15.40Q126.52 15.40 126.02 15.66Q125.51 15.92 125.21 16.39L125.21 16.39L127.78 16.39L127.78 17.56L124.83 17.56Q124.82 17.64 124.82 17.80L124.82 17.80Q124.82 17.96 124.83 18.04L124.83 18.04L127.78 18.04L127.78 19.22L125.21 19.22Q125.51 19.69 126.02 19.94Q126.52 20.20 127.16 20.20L127.16 20.20Q128.32 20.20 129.14 19.22L129.14 19.22L130.65 20.58Q130.04 21.35 129.11 21.76Q128.19 22.17 127.03 22.17L127.03 22.17Q125.99 22.17 125.09 21.80Q124.19 21.44 123.56 20.77Q122.92 20.10 122.63 19.22L122.63 19.22Z" fill="#FFFFFF" x="108.89"/></svg>