<svg xmlns="http://www.w3.org/2000/svg" width="163.6" height="35" viewBox="0 0 163.6 35"><rect class="svg__rect" x="0" y="0" width="117.93" height="35" fill="#5593C7"/><rect class="svg__rect" x="115.93" y="0" width="47.66999999999999" height="35" fill="#3BC4F3"/><path class="svg__text" d="M15.60 22L13.63 13.47L15.10 13.47L16.43 19.88L18.06 13.47L19.30 13.47L20.91 19.89L22.22 13.47L23.69 13.47L21.72 22L20.31 22L18.68 15.77L17.02 22L15.60 22ZM27.49 18.00L27.49 18.00L27.49 17.52Q27.49 16.28 27.94 15.32Q28.38 14.37 29.18 13.86Q29.99 13.35 31.03 13.35Q32.08 13.35 32.88 13.85Q33.69 14.35 34.13 15.29Q34.57 16.23 34.57 17.48L34.57 17.48L34.57 17.96Q34.57 19.21 34.14 20.16Q33.71 21.10 32.90 21.61Q32.09 22.12 31.05 22.12L31.05 22.12Q30.01 22.12 29.20 21.61Q28.39 21.10 27.94 20.17Q27.50 19.23 27.49 18.00ZM28.98 17.46L28.98 17.96Q28.98 19.36 29.52 20.13Q30.07 20.90 31.05 20.90L31.05 20.90Q32.03 20.90 32.56 20.15Q33.09 19.40 33.09 17.96L33.09 17.96L33.09 17.51Q33.09 16.09 32.55 15.34Q32.02 14.58 31.03 14.58L31.03 14.58Q30.07 14.58 29.53 15.33Q28.99 16.09 28.98 17.46L28.98 17.46ZM40.52 22L39.04 22L39.04 13.47L42.04 13.47Q43.51 13.47 44.32 14.13Q45.12 14.79 45.12 16.05L45.12 16.05Q45.12 16.90 44.71 17.48Q44.29 18.06 43.56 18.37L43.56 18.37L45.47 21.92L45.47 22L43.88 22L42.17 18.71L40.52 18.71L40.52 22ZM40.52 14.66L40.52 17.52L42.04 17.52Q42.79 17.52 43.22 17.15Q43.64 16.77 43.64 16.11L43.64 16.11Q43.64 15.43 43.25 15.05Q42.86 14.68 42.08 14.66L42.08 14.66L40.52 14.66ZM51.00 22L49.51 22L49.51 13.47L51.00 13.47L51.00 17.47L51.82 16.46L54.31 13.47L56.11 13.47L52.94 17.25L56.29 22L54.53 22L51.96 18.31L51.00 19.34L51.00 22ZM59.63 19.42L59.63 19.42L61.12 19.42Q61.12 20.15 61.60 20.55Q62.08 20.95 62.97 20.95L62.97 20.95Q63.75 20.95 64.14 20.63Q64.53 20.32 64.53 19.80L64.53 19.80Q64.53 19.24 64.13 18.94Q63.73 18.63 62.70 18.32Q61.67 18.01 61.06 17.63L61.06 17.63Q59.90 16.90 59.90 15.72L59.90 15.72Q59.90 14.69 60.74 14.02Q61.58 13.35 62.92 13.35L62.92 13.35Q63.81 13.35 64.51 13.68Q65.21 14.01 65.60 14.61Q66.00 15.22 66.00 15.96L66.00 15.96L64.53 15.96Q64.53 15.29 64.11 14.91Q63.69 14.54 62.91 14.54L62.91 14.54Q62.18 14.54 61.78 14.85Q61.38 15.16 61.38 15.71L61.38 15.71Q61.38 16.18 61.81 16.50Q62.25 16.81 63.24 17.10Q64.24 17.40 64.84 17.78Q65.45 18.16 65.73 18.65Q66.01 19.13 66.01 19.79L66.01 19.79Q66.01 20.86 65.19 21.49Q64.37 22.12 62.97 22.12L62.97 22.12Q62.05 22.12 61.27 21.77Q60.49 21.43 60.06 20.83Q59.63 20.22 59.63 19.42ZM77.76 22L76.27 22L76.27 13.47L81.69 13.47L81.69 14.66L77.76 14.66L77.76 17.20L81.19 17.20L81.19 18.38L77.76 18.38L77.76 22ZM85.58 18.00L85.58 18.00L85.58 17.52Q85.58 16.28 86.03 15.32Q86.47 14.37 87.27 13.86Q88.08 13.35 89.12 13.35Q90.17 13.35 90.97 13.85Q91.78 14.35 92.22 15.29Q92.66 16.23 92.66 17.48L92.66 17.48L92.66 17.96Q92.66 19.21 92.23 20.16Q91.80 21.10 90.99 21.61Q90.18 22.12 89.14 22.12L89.14 22.12Q88.10 22.12 87.29 21.61Q86.47 21.10 86.03 20.17Q85.59 19.23 85.58 18.00ZM87.07 17.46L87.07 17.96Q87.07 19.36 87.61 20.13Q88.16 20.90 89.14 20.90L89.14 20.90Q90.12 20.90 90.65 20.15Q91.18 19.40 91.18 17.96L91.18 17.96L91.18 17.51Q91.18 16.09 90.64 15.34Q90.11 14.58 89.12 14.58L89.12 14.58Q88.16 14.58 87.62 15.33Q87.08 16.09 87.07 17.46L87.07 17.46ZM98.61 22L97.13 22L97.13 13.47L100.13 13.47Q101.60 13.47 102.41 14.13Q103.21 14.79 103.21 16.05L103.21 16.05Q103.21 16.90 102.80 17.48Q102.38 18.06 101.64 18.37L101.64 18.37L103.56 21.92L103.56 22L101.97 22L100.26 18.71L98.61 18.71L98.61 22ZM98.61 14.66L98.61 17.52L100.13 17.52Q100.88 17.52 101.31 17.15Q101.73 16.77 101.73 16.11L101.73 16.11Q101.73 15.43 101.34 15.05Q100.95 14.68 100.17 14.66L100.17 14.66L98.61 14.66Z" fill="#FFFFFF"/><path class="svg__text" d="M132.32 22L130.12 22L130.12 13.60L132.07 13.60L135.03 18.45L137.91 13.60L139.86 13.60L139.89 22L137.71 22L137.68 17.55L135.52 21.17L134.47 21.17L132.32 17.67L132.32 22ZM151.79 22L145.05 22L145.05 13.60L151.64 13.60L151.64 15.44L147.40 15.44L147.40 16.85L151.14 16.85L151.14 18.63L147.40 18.63L147.40 20.17L151.79 20.17L151.79 22Z" fill="#FFFFFF" x="128.93"/></svg>